<svg xmlns="http://www.w3.org/2000/svg"
shape-rendering="geometricPrecision"
width="4000" height="4000" viewBox="0 0 820 820"><rect width="100%" height="100%" fill="#F0FCF9" />
  <metadata>null</metadata>

<path d="
M 37.493 393.616
C 38.743 382.691 35.187 371.506 43.328 362.374
C 44.787 360.738 46.497 359.316 48.353 358.154
C 50.397 356.875 52.687 355.796 55.03 355.202
C 59.27 354.127 63.529 354.79 67.811 354.665
C 67.685 351.92 67.273 348.363 68.622 345.85
C 70.764 341.863 76.54 342.671 78.555 346.323
C 79.781 348.543 79.278 352.087 79.175 354.537
C 90.084 354.991 101.088 354.597 112.006 354.597
C 114.735 354.597 117.466 354.63 120.196 354.608
C 120.643 354.605 122.517 354.878 122.774 354.563
C 122.516 352.115 122.258 348.29 123.517 346.067
C 125.55 342.474 130.291 342.468 132.865 345.437
C 134.399 347.205 134.266 349.491 134.214 351.694
C 134.194 352.513 133.882 353.948 134.241 354.667
C 137.909 354.281 141.857 354.023 145.487 354.835
C 153.421 356.608 160.292 362.538 162.882 370.273
C 165.16 377.076 164.079 385.184 164.041 392.255
C 163.969 405.642 164.124 419.048 163.945 432.43
C 163.87 438.046 163.885 443.672 163.943 449.289
C 164 454.924 164.07 460.446 161.14 465.47
C 157.761 471.265 151.553 475.481 144.934 476.574
C 140.378 477.326 135.48 476.764 130.881 476.725
C 110.755 476.553 90.625 476.824 70.498 476.785
C 60.394 476.765 50.149 477.607 42.905 469.163
C 36.42 461.603 37.376 452.311 37.398 442.998
C 37.437 426.588 36.711 410.006 37.493 393.616 Z
M 47.97 375.619
C 47.827 377.569 47.261 381.312 48.305 383.006
C 56.286 382.407 64.493 382.916 72.503 382.886
C 91.001 382.819 109.503 382.86 128.002 382.867
C 136.471 382.87 145.064 383.383 153.517 382.976
C 153.813 382.671 153.695 381.834 153.71 381.438
C 153.769 379.917 153.783 378.382 153.707 376.861
C 153.452 371.744 149.963 367.075 144.941 365.566
C 141.473 364.524 137.456 365.317 133.903 365.313
C 134.205 367.772 134.561 371.619 132.915 373.718
C 130.171 377.216 124.925 376.239 123.073 372.402
C 122.077 370.337 122.313 367.499 122.411 365.284
C 119.179 364.823 115.691 365.183 112.429 365.169
C 105.451 365.139 98.475 365.196 91.497 365.262
C 88.665 365.289 85.832 365.315 83 365.344
C 81.87 365.355 80.181 365.091 79.154 365.569
C 79.311 367.913 79.678 370.959 78.659 373.151
C 76.89 376.959 71.65 377.152 69.127 374.038
C 67.675 372.247 67.729 370.074 67.726 367.887
C 67.725 367.15 67.969 365.943 67.636 365.297
C 60.416 364.995 52.861 364.282 48.937 371.709
C 48.253 373.003 48.202 374.213 47.97 375.619 Z
M 47.974 394.626
C 47.552 400.196 47.93 405.921 47.925 411.507
C 47.916 422.84 47.914 434.173 47.857 445.505
C 47.823 452.369 46.733 460.064 53.291 464.411
C 57.327 467.088 62.916 466.232 67.505 466.229
C 77.419 466.221 87.395 465.94 97.302 466.224
C 97.498 462.79 98.031 459.217 99.415 456.032
C 102.406 449.15 108.846 444.1 116.195 442.669
C 120.171 441.895 124.476 442.211 128.505 442.293
C 134.803 442.421 141.511 443.613 146.633 439.095
C 149.613 436.467 152.232 432.818 153.011 428.861
C 153.669 425.516 153.229 421.891 153.215 418.502
C 153.192 413.002 153.22 407.501 153.25 402.001
C 153.266 399.108 152.992 396.036 153.342 393.167
C 145.327 393.789 137.044 393.15 129.001 393.156
C 112 393.168 94.999 393.205 77.997 393.23
C 71.331 393.24 64.665 393.274 57.999 393.293
C 54.84 393.303 51.125 392.784 48.047 393.533
C 48.02 394.361 48.053 393.997 47.974 394.626 Z
M 108.416 464.086
C 108.309 464.773 108.257 465.467 108.153 466.158
C 117.594 466.054 127.061 466.198 136.505 466.232
C 142.349 466.254 148.272 466.231 151.796 460.705
C 154.236 456.877 153.634 450.939 153.504 446.562
C 149.645 449.012 146.768 452.022 142.001 452.785
C 136.097 453.729 129.965 453.206 124.01 453.166
C 119.828 453.137 115.691 453.048 112.438 456.078
C 109.996 458.353 109.306 461.04 108.416 464.086 Z"
opacity="1" fill="rgb(27,96,72)" fill-rule="evenodd" />
<path d="
M 63.397 403.797
C 65.956 403.611 68.523 403.694 71.087 403.664
C 72.03 403.653 73.675 403.342 74.451 403.873
C 74.197 407.356 74.488 410.958 74.384 414.458
C 70.77 414.37 67.134 414.269 63.519 414.337
C 63.118 413.426 63.325 412.077 63.3 411.082
C 63.238 408.651 63.24 406.224 63.397 403.797 Z"
opacity="1" fill="rgb(30,91,69)" fill-rule="evenodd" />
<path d="
M 63.397 424.104
C 63.508 423.479 63.47 423.848 63.442 422.993
C 66.43 422.136 71.501 422.314 74.573 422.805
C 74.638 425.362 74.606 427.934 74.636 430.497
C 74.647 431.361 74.948 432.834 74.36 433.53
C 70.776 433.352 67.042 433.362 63.448 433.496
C 63.268 430.427 63.079 427.17 63.397 424.104 Z"
opacity="1" fill="rgb(30,94,70)" fill-rule="evenodd" />
<path d="
M 63.378 442.43
C 64.041 441.839 65.104 441.952 65.973 441.937
C 67.986 441.901 69.992 441.964 72.001 442.038
C 72.789 442.067 73.876 441.855 74.487 442.37
C 74.317 445.722 75.35 449.618 74.399 452.88
C 70.77 452.842 67.125 452.844 63.497 452.919
C 63.029 449.552 63.171 445.819 63.378 442.43 Z"
opacity="1" fill="rgb(29,94,69)" fill-rule="evenodd" />
<path d="
M 84.16 403.729
C 86.639 403.559 89.104 403.598 91.589 403.624
C 92.567 403.634 94.102 403.392 94.944 403.895
C 94.734 406.287 94.93 408.795 94.984 411.199
C 95.005 412.147 95.204 413.436 94.888 414.34
C 91.43 414.244 87.931 414.273 84.475 414.4
C 83.921 413.809 84.172 412.363 84.16 411.56
C 84.121 408.944 84.139 406.343 84.16 403.729 Z"
opacity="1" fill="rgb(37,97,74)" fill-rule="evenodd" />
<path d="
M 84.249 422.829
C 87.805 422.808 91.457 422.53 95.005 422.902
C 94.996 426.377 95.334 429.86 95.145 433.339
C 91.855 434.017 87.832 433.338 84.461 433.434
C 83.828 432.85 84.136 431.393 84.134 430.556
C 84.129 427.984 84.005 425.393 84.249 422.829 Z"
opacity="1" fill="rgb(35,97,72)" fill-rule="evenodd" />
<path d="
M 84.151 442.224
C 87.816 441.925 91.502 441.942 95.176 442.121
C 95.052 445.592 94.951 449.259 95.174 452.721
C 92.685 452.493 89.999 452.775 87.493 452.813
C 86.494 452.827 84.974 453.172 84.112 452.689
C 83.939 449.207 83.969 445.701 84.151 442.224 Z"
opacity="1" fill="rgb(34,100,73)" fill-rule="evenodd" />
<path d="
M 104.471 405.1
C 104.571 404.502 104.538 404.854 104.508 404.042
C 105.717 403.588 107.224 403.787 108.503 403.779
C 110.771 403.765 113.253 403.481 115.495 403.823
C 115.2 407.337 115.547 410.925 115.374 414.453
C 112.077 414.772 108.041 414.855 104.753 414.431
C 104.207 411.453 104.179 408.104 104.471 405.1 Z"
opacity="1" fill="rgb(34,93,71)" fill-rule="evenodd" />
<path d="
M 104.483 424.098
C 104.572 423.506 104.544 423.852 104.512 423.058
C 107.589 422.251 112.356 422.415 115.5 422.878
C 115.29 426.155 114.884 430.381 115.441 433.602
C 115 433.997 113.324 433.64 112.775 433.624
C 110.112 433.547 107.451 433.528 104.791 433.478
C 103.873 430.769 104.23 426.908 104.483 424.098 Z"
opacity="1" fill="rgb(33,93,74)" fill-rule="evenodd" />
<path d="
M 124.974 410.115
C 125.206 408.01 125.085 405.841 125.187 403.723
C 128.856 403.288 132.604 403.643 136.291 403.578
C 135.94 406.972 135.966 410.992 136.268 414.389
C 132.985 415.098 128.449 414.467 125.098 414.239
C 125.016 412.862 125.023 411.49 124.974 410.115 Z"
opacity="1" fill="rgb(31,93,72)" fill-rule="evenodd" />
<path d="
M 124.989 424.089
C 125.088 423.535 125.045 423.858 125.085 423.115
C 125.665 422.552 127.182 422.793 127.999 422.784
C 130.734 422.754 133.477 422.734 136.211 422.776
C 136.527 423.445 136.307 424.737 136.292 425.492
C 136.245 427.926 136.864 431.258 136.032 433.553
C 132.434 433.74 128.67 433.609 125.068 433.398
C 124.725 430.42 124.671 427.08 124.989 424.089 Z"
opacity="1" fill="rgb(31,97,74)" fill-rule="evenodd" />
<path d="
M 205.993 433.606
C 206.39 428.081 212.193 430.66 215.485 431.839
C 221.942 434.153 228.452 436.463 235.436 435.763
C 238.784 435.428 242.406 434.452 243.916 431.123
C 244.27 430.343 244.399 429.488 244.523 428.649
C 245.529 421.786 238.494 419.51 233.222 417.883
C 223.669 414.935 210.489 412.591 207.209 401.536
C 206.48 399.081 206.25 396.443 206.279 393.888
C 206.307 391.412 206.634 388.964 207.442 386.616
C 212.261 372.628 230.061 371.727 242.221 374.929
C 245.99 375.922 250.96 376.703 253.958 379.402
C 254.947 380.292 254.798 381.779 254.826 383.002
C 254.883 385.499 255.58 390.343 251.949 390.67
C 248.881 390.946 245.786 389.514 242.898 388.688
C 238.217 387.349 233.18 386.187 228.279 386.399
C 224.35 386.568 220.066 388.527 219.925 392.997
C 219.686 400.532 231.271 402.337 236.713 404.075
C 242.353 405.876 248.465 407.667 252.916 411.766
C 259.695 418.008 260.298 429.981 256.161 437.935
C 249.681 450.395 232.207 450.752 220.324 447.717
C 216.938 446.852 213.607 445.993 210.394 444.585
C 208.996 443.972 207.204 443.272 206.469 441.826
C 205.47 439.862 205.833 435.825 205.993 433.606 Z"
opacity="1" fill="rgb(29,97,73)" fill-rule="evenodd" />
<path d="
M 261.346 396.052
C 261.586 395.164 262.148 394.319 262.979 393.864
C 263.813 393.407 264.898 393.477 265.815 393.432
C 268.273 393.314 272.941 392.695 274.556 395.065
C 276.206 397.485 277.163 400.797 278.225 403.52
C 280.561 409.513 282.873 415.509 285.344 421.448
C 286.378 423.932 287.103 426.941 288.506 429.221
C 289.026 427.169 290.189 425.185 290.975 423.206
C 292.564 419.2 293.942 415.109 295.468 411.079
C 296.937 407.199 298.418 403.325 299.863 399.436
C 300.449 397.862 301.138 395.466 302.492 394.384
C 303.354 393.695 304.693 393.705 305.741 393.635
C 308.219 393.467 314.607 392.619 314.698 396.487
C 314.739 398.215 313.611 400.007 312.927 401.534
C 311.323 405.114 309.759 408.779 308.379 412.452
C 303.252 426.095 297.651 439.611 292.074 453.074
C 290.761 456.245 289.694 459.521 288.31 462.666
C 287.753 463.931 287.113 465.635 285.804 466.306
C 284.198 467.13 281.865 466.807 280.115 466.803
C 277.734 466.797 275.18 467.058 274.046 464.54
C 274.011 462.837 274.817 461.123 275.419 459.553
C 276.595 456.487 277.858 453.435 279.212 450.444
C 279.83 449.078 281.585 446.837 281.265 445.294
C 280.515 441.688 278.303 437.897 276.902 434.478
C 273.311 425.721 269.253 417.142 265.851 408.309
C 264.415 404.581 261.294 400.113 261.346 396.052 Z"
opacity="1" fill="rgb(28,97,73)" fill-rule="evenodd" />
<path d="
M 319.931 410.095
C 322.274 391.894 347.522 387.409 360.351 397.655
C 366.64 402.678 366.718 410.741 366.693 418.079
C 366.674 423.386 366.649 428.692 366.65 433.998
C 366.651 436.833 366.659 439.666 366.664 442.5
C 366.665 443.788 366.921 445.435 366.37 446.644
C 365.893 447.691 364.825 448.123 363.764 448.284
C 361.323 448.652 358.293 448.906 355.877 448.352
C 354.956 448.141 353.846 447.385 353.524 446.455
C 352.588 443.76 353.305 439.79 353.31 436.962
C 353.322 430.325 353.298 423.689 353.295 417.053
C 353.292 412.105 352.939 406.652 346.946 405.53
C 342.424 404.683 336.256 404.858 333.881 409.508
C 332.561 412.092 333.165 415.694 333.167 418.501
C 333.172 425.114 333.235 431.73 333.134 438.342
C 333.1 440.632 333.769 444.676 332.669 446.767
C 331.339 449.293 326.941 448.644 324.652 448.621
C 323.745 448.612 322.682 448.664 321.817 448.345
C 321.124 448.09 320.514 447.482 320.123 446.868
C 319.178 445.384 319.608 442.698 319.599 441.003
C 319.575 436.169 319.589 431.334 319.586 426.5
C 319.584 421.065 319.236 415.495 319.931 410.095 Z"
opacity="1" fill="rgb(28,96,72)" fill-rule="evenodd" />
<path d="
M 377.452 408.11
C 378.297 401.758 379.153 395.709 382.172 389.927
C 389.623 375.659 405.79 371.536 420.652 374.543
C 425.114 375.446 431.072 376.676 434.547 379.799
C 435.258 380.905 435.103 382.292 435.154 383.556
C 435.278 386.707 435.869 390.909 431.828 391.519
C 429.866 391.815 427.503 390.658 425.696 390.012
C 422.271 388.789 418.806 387.731 415.192 387.261
C 411.784 386.818 407.975 386.739 404.623 387.612
C 394.374 390.281 391.251 401.943 391.234 411.256
C 391.218 420.247 393.654 430.217 402.741 434.03
C 404.488 434.763 406.393 435.207 408.273 435.421
C 411.168 435.751 414.097 435.613 416.974 435.185
C 420.456 434.668 423.916 433.534 427.194 432.271
C 428.953 431.593 431.136 430.514 433.081 431.032
C 436.382 431.911 435.383 436.962 435.347 439.42
C 435.333 440.399 435.33 441.338 434.945 442.25
C 433.653 444.113 430.998 445.005 428.939 445.724
C 424.633 447.227 420.538 448.383 415.99 448.891
C 412.019 449.335 408.037 449.215 404.087 448.536
C 400.909 447.989 397.707 447.01 394.811 445.585
C 380.81 438.7 376.339 422.751 377.452 408.11 Z"
opacity="1" fill="rgb(28,96,73)" fill-rule="evenodd" />
<path d="
M 443.943 428.594
C 444.341 426.665 444.669 424.816 445.682 423.085
C 450.146 415.455 459.349 415.097 467.197 415.093
C 469.82 415.092 473.146 414.632 475.696 415.134
C 475.775 413.828 475.806 412.296 475.513 411.012
C 473.694 403.026 462.188 405.148 456.384 406.156
C 453.324 406.688 449.057 408.717 447.39 404.881
C 445.502 400.538 448.198 396.467 452.2 394.874
C 458.7 392.286 467.22 392.103 474.005 393.513
C 475.945 393.916 477.816 394.587 479.587 395.476
C 490.989 401.198 488.718 415.374 488.735 425.994
C 488.747 433.316 490.415 442.767 482.773 447.019
C 481.058 447.973 479.302 448.12 477.429 448.483
C 476.545 447.466 476.993 445.446 476.761 444.155
C 474.707 445.139 474.084 447.69 471.818 448.351
C 463.738 450.71 451.232 449.537 446.197 441.939
C 443.692 438.158 443.344 432.98 443.943 428.594 Z
M 457.409 429.591
C 456.178 438.382 469.643 440.003 474.902 435.56
C 475.439 434.73 475.235 433.386 475.231 432.438
C 475.222 429.931 475.422 427.311 475.078 424.825
C 469.444 423.542 459.43 422.668 457.409 429.591 Z"
opacity="1" fill="rgb(26,97,73)" fill-rule="evenodd" />
<path d="
M 499.871 376.051
C 500.195 375.214 500.706 374.389 501.51 373.924
C 502.491 373.355 503.786 373.524 504.87 373.482
C 507.423 373.381 512.563 372.52 513.285 376.055
C 514.176 380.42 513.408 385.593 513.408 390.039
C 513.409 399.695 513.38 409.35 513.378 419.006
C 513.377 422.234 513.363 425.46 513.381 428.687
C 513.393 430.625 513.304 432.607 514.471 434.27
C 515.766 436.114 517.78 436.741 519.691 437.729
C 520.029 440.38 520.546 445.202 519.427 447.669
C 517.806 448.968 515.444 448.627 513.511 448.475
C 507.641 448.015 501.897 444.678 500.574 438.632
C 499.603 434.197 499.786 429.425 499.747 424.908
C 499.684 417.578 499.746 410.247 499.767 402.917
C 499.783 396.945 499.768 390.973 499.766 385.001
C 499.765 382.093 499.384 378.92 499.871 376.051 Z"
opacity="1" fill="rgb(29,97,74)" fill-rule="evenodd" />
<path d="
M 526.934 412.107
C 527.77 406.93 529.121 402.275 533.03 398.506
C 537.056 394.626 542.712 393.099 548.154 392.788
C 556.062 392.337 564.388 393.811 569.726 400.191
C 575.078 406.587 576.192 420.959 567.068 424.584
C 564.532 425.591 561.42 425.611 558.726 425.641
C 552.742 425.709 546.211 424.686 540.309 425.668
C 540.36 427.482 540.287 429.296 540.962 431.021
C 543.825 438.338 554.292 437.366 560.401 436.053
C 563.126 435.467 566.478 433.418 569.312 433.937
C 573.04 434.62 572.512 439.597 572.093 442.415
C 571.541 446.125 566.582 447.04 563.586 447.802
C 555 449.985 544.123 450.129 536.208 445.673
C 527.477 440.757 526.721 432.004 526.716 422.961
C 526.714 419.35 526.634 415.708 526.934 412.107 Z
M 540.401 412.091
C 540.272 413.135 539.997 414.566 540.319 415.57
C 544.537 415.442 548.781 415.537 553.002 415.539
C 554.845 415.54 557.325 415.89 559.067 415.19
C 561.786 413.18 559.677 408.342 557.627 406.698
C 553.933 403.736 546.483 403.727 542.98 407.016
C 541.504 408.402 540.865 410.178 540.401 412.091 Z"
opacity="1" fill="rgb(28,97,75)" fill-rule="evenodd" />
<path d="
M 583.951 412.612
C 584.654 407.714 585.443 403.055 589.043 399.292
C 594.596 393.489 602.879 392.238 610.569 392.702
C 615.799 393.017 620.758 394.152 624.926 397.512
C 631.548 402.851 631.815 410.801 631.804 418.628
C 631.797 423.586 631.785 428.544 631.796 433.502
C 631.802 436.503 631.83 439.503 631.819 442.503
C 631.814 443.838 632.066 445.55 631.448 446.786
C 630.798 448.088 629.453 448.335 628.153 448.497
C 625.468 448.83 619.132 449.678 618.283 446.102
C 617.614 443.286 618.097 439.884 618.095 437.002
C 618.091 431.205 618.088 425.407 618.074 419.609
C 618.066 416.401 618.484 412.403 617.221 409.379
C 614.833 403.661 603.368 403.521 599.57 407.678
C 596.871 410.631 597.646 415.327 597.665 419.001
C 597.696 425.187 597.683 431.372 597.7 437.558
C 597.707 440.459 598.24 443.978 597.327 446.765
C 595.824 449.342 592.152 448.641 589.671 448.601
C 588.588 448.584 587.287 448.671 586.252 448.299
C 585.257 447.942 584.471 447.075 584.208 446.054
C 583.205 442.157 583.865 437.489 583.859 433.497
C 583.849 426.574 583.417 419.516 583.951 412.612 Z"
opacity="1" fill="rgb(28,98,74)" fill-rule="evenodd" />
<path d="
M 642.977 418.115
C 643.809 411.844 643.566 406.152 647.478 400.729
C 651.719 394.849 658.621 392.48 665.667 392.588
C 668.736 392.635 671.798 392.988 674.381 394.8
C 675.772 395.776 676.352 397.131 677.293 398.475
C 677.824 398.353 677.333 396.871 677.314 396.511
C 677.221 394.696 677.4 392.814 677.407 390.992
C 677.421 387.017 677.37 383.041 677.406 379.067
C 677.422 377.295 677.324 375.19 679.017 374.104
C 680.491 373.159 683.188 373.599 684.884 373.617
C 686.105 373.63 687.713 373.476 688.848 373.994
C 691.145 375.042 690.97 377.151 690.962 379.315
C 690.945 384.044 690.829 388.773 690.814 393.502
C 690.784 402.669 690.779 411.837 690.832 421.003
C 690.863 426.266 691.411 431.937 690.48 437.137
C 689.453 442.872 684.67 448.491 678.433 448.637
C 678.42 447.693 678.587 443.328 677.637 443.349
C 676.954 444.724 676.056 446.434 674.805 447.382
C 672.782 448.914 669.662 449.126 667.218 449.257
C 660.483 449.62 653.051 448.177 648.308 443.003
C 642.554 436.726 642.442 426.151 642.977 418.115 Z
M 656.941 413.616
C 656.525 417.842 656.624 422.25 656.84 426.489
C 656.986 429.355 657.434 432.468 659.484 434.648
C 663.483 438.901 675.715 438.763 676.797 431.73
C 677.579 426.64 676.811 421.069 676.932 415.918
C 676.996 413.227 677.433 410.339 675.531 408.124
C 672.379 404.453 664.796 403.826 660.853 406.461
C 658.406 408.097 657.222 410.758 656.941 413.616 Z"
opacity="1" fill="rgb(27,97,72)" fill-rule="evenodd" />
<path d="
M 700.889 428.091
C 701.273 426.202 701.718 424.523 702.703 422.841
C 708.801 412.431 722.537 416.1 732.309 415.343
C 732.38 413.442 732.623 411.446 731.838 409.641
C 729.113 403.381 718.877 405.15 713.592 406.133
C 710.643 406.682 705.9 408.88 704.302 405.048
C 702.321 400.295 705.309 396.405 709.656 394.818
C 716.072 392.476 724.246 392.263 730.917 393.576
C 732.823 393.951 734.713 394.604 736.438 395.499
C 748.438 401.72 745.768 416.702 745.805 427.965
C 745.828 435.172 746.79 444.667 738.343 447.669
C 737.001 448.146 735.576 448.503 734.156 448.628
C 733.917 447.171 733.882 445.671 733.558 444.231
C 732.319 444.521 731.463 446.478 730.636 447.388
C 729.853 448.248 728.75 448.468 727.65 448.696
C 717.088 450.891 702.821 448.041 700.922 435.636
C 700.546 433.179 700.522 430.55 700.889 428.091 Z
M 714.379 429.055
C 712.211 438.112 726.872 440.751 731.894 435.457
C 732.451 434.747 732.177 433.29 732.17 432.441
C 732.151 429.888 732.064 427.332 732.056 424.782
C 726.317 423.886 717.135 422.641 714.379 429.055 Z"
opacity="1" fill="rgb(27,97,73)" fill-rule="evenodd" />
<path d="
M 756.462 411.095
C 757.326 403.978 761.948 397.935 768.487 395.09
C 771.67 393.705 774.941 393.23 778.375 392.997
C 779.964 392.888 781.813 392.625 782.78 394.221
C 783.28 395.046 783.082 395.981 783.064 396.888
C 783.024 398.874 783.285 400.983 783.052 402.952
C 782.675 406.14 779.414 405.634 777.027 405.952
C 774.277 406.318 771.76 407.848 770.692 410.513
C 769.595 413.25 770.134 416.694 770.143 419.578
C 770.16 425.552 770.189 431.526 770.18 437.5
C 770.177 439.62 770.171 441.74 770.182 443.86
C 770.187 444.972 770.277 446.226 769.602 447.189
C 768.927 448.152 767.931 448.507 766.79 448.57
C 764.161 448.717 757.701 449.608 756.562 446.4
C 756.155 445.254 756.318 443.705 756.306 442.502
C 756.281 440.002 756.291 437.502 756.288 435.002
C 756.279 427.148 755.516 418.897 756.462 411.095 Z"
opacity="1" fill="rgb(27,96,73)" fill-rule="evenodd" />

</svg>