<svg version="1.1" id="Layer_1" xmlns="http://www.w3.org/2000/svg" xmlns:xlink="http://www.w3.org/1999/xlink" x="0px" y="0px"
	 width="100%" viewBox="0 0 723 322" enable-background="new 0 0 723 322" xml:space="preserve">
<path fill="#000000" opacity="1.000000" stroke="none" 
	d="
M436.000000,323.000000 
	C290.701294,323.000000 145.902588,323.000000 1.051939,323.000000 
	C1.051939,215.726974 1.051939,108.453918 1.051939,1.090430 
	C241.882065,1.090430 482.764191,1.090430 723.823120,1.090430 
	C723.823120,108.333107 723.823120,215.666519 723.823120,323.000000 
	C628.120544,323.000000 532.310242,323.000000 436.000000,323.000000 
M586.898865,136.912872 
	C586.897766,127.303444 586.896667,117.694023 586.859009,107.318985 
	C584.870789,100.847168 579.102783,99.958275 573.409668,105.219688 
	C574.561951,107.220413 575.976318,109.110016 576.806824,111.228546 
	C578.940063,116.670059 577.487305,118.312332 571.897034,119.170944 
	C567.961731,119.775360 563.589111,120.869949 560.542786,123.214989 
	C554.609619,127.782372 552.881348,137.059784 555.503723,144.132187 
	C558.224426,151.469681 564.238892,154.910843 571.520447,152.889145 
	C574.767944,151.987473 577.611816,151.467041 580.998291,152.800369 
	C583.094299,153.625610 585.966736,153.033371 588.307251,152.399857 
	C589.196411,152.159164 590.299316,149.061249 590.073364,148.889969 
	C586.177002,145.936218 587.284546,141.673508 586.898865,136.912872 
M222.554382,175.365021 
	C222.612701,160.677460 222.676865,145.989914 222.701218,131.302292 
	C222.701935,130.862183 222.285660,130.421371 222.069595,129.046021 
	C222.044128,121.048912 222.008133,113.051811 221.995407,105.054688 
	C221.970734,89.558815 210.491226,78.001228 194.898880,78.074799 
	C191.020187,78.093109 188.611099,77.709694 188.713440,72.840912 
	C188.745514,71.314758 185.996536,69.730148 184.520523,68.172295 
	C183.060028,69.556206 180.308487,70.992569 180.362213,72.314957 
	C180.596359,78.077629 177.323700,78.289520 173.088806,78.053429 
	C169.268509,77.840446 165.425522,77.928429 161.596054,78.024017 
	C159.094559,78.086464 158.452240,76.973938 157.814316,74.592285 
	C157.185272,72.243828 155.322784,68.829056 153.518280,68.495430 
	C150.201843,67.882271 148.872299,71.062820 149.045288,74.223267 
	C149.225052,77.507256 147.474411,78.122208 144.715149,78.035728 
	C140.886978,77.915756 137.045090,77.863159 133.222107,78.049347 
	C129.287445,78.240974 126.435371,77.942184 126.663361,72.657578 
	C126.725365,71.220291 124.055923,69.101723 122.220581,68.411797 
	C121.441124,68.118790 118.336655,70.787003 118.420029,71.957619 
	C118.881645,78.438614 114.925369,78.283249 110.489349,78.022263 
	C101.183754,77.474770 92.665314,86.282722 92.831718,95.516434 
	C93.323975,122.831276 92.998466,150.160690 93.011993,177.484406 
	C93.017540,188.690979 105.164650,200.950211 116.441437,200.973022 
	C144.764236,201.030350 173.087326,201.025269 201.409912,200.928986 
	C203.654739,200.921371 206.041656,200.355408 208.115158,199.469772 
	C218.384888,195.083420 222.872131,187.112534 222.554382,175.365021 
M243.969299,120.350700 
	C247.222855,123.711685 250.217346,127.388306 253.809586,130.336655 
	C256.839264,132.823303 260.984222,134.012192 263.818604,136.652466 
	C265.472992,138.193527 266.887817,142.813919 266.027222,143.679535 
	C263.843506,145.876038 260.387695,147.579941 257.302582,147.840759 
	C255.194229,148.018997 252.737305,145.594040 250.648117,144.046768 
	C248.604660,142.533386 246.829803,140.657288 244.837723,138.850281 
	C241.001450,145.657318 242.946121,150.815018 249.654800,152.015427 
	C254.022873,152.797028 258.573181,153.061218 263.007477,152.846725 
	C268.750671,152.568924 274.916534,147.276443 275.886566,142.555054 
	C277.119019,136.556351 274.016998,130.648926 267.867981,127.445137 
	C264.177643,125.522385 260.095612,124.147598 256.836365,121.674271 
	C254.727005,120.073540 252.554520,116.852287 252.708069,114.507690 
	C252.832916,112.601562 256.279541,109.629601 258.424774,109.472343 
	C260.960144,109.286491 263.781616,111.444267 266.287964,112.912346 
	C268.314819,114.099571 270.058502,115.770287 272.060852,117.330193 
	C275.674164,109.992989 273.696198,105.812950 266.805023,104.810387 
	C264.056061,104.410461 261.272461,104.071037 258.500641,104.037903 
	C248.804703,103.922012 241.988281,111.195343 243.969299,120.350700 
M355.999390,139.209778 
	C355.998566,136.711578 355.816681,134.197983 356.027496,131.717773 
	C357.084412,119.283264 347.233246,116.518646 338.655975,120.714333 
	C337.219879,121.416817 335.112701,120.766151 333.316559,120.709610 
	C330.041901,120.606522 326.763367,120.365837 323.499146,120.497246 
	C323.053650,120.515175 322.049164,122.859917 322.370667,123.251686 
	C326.314880,128.058258 324.196533,133.883270 325.328766,139.113922 
	C326.069458,142.535751 325.661133,145.074738 323.057343,147.574417 
	C320.258850,150.260925 321.934875,152.098373 324.965210,152.725967 
	C327.049805,153.157684 329.274933,153.030899 331.431976,152.969238 
	C336.818573,152.815247 337.115570,151.820984 336.199493,146.601288 
	C335.291809,141.429230 335.043488,136.059814 335.238007,130.804062 
	C335.372498,127.169907 337.616577,124.854500 341.885223,125.015579 
	C346.054382,125.172920 346.371063,127.947189 347.020203,131.008377 
	C348.259705,136.853699 347.678223,142.467422 345.910034,148.108536 
	C345.581940,149.155350 346.032532,151.083420 346.832092,151.733139 
	C349.851074,154.186478 357.321381,153.253769 359.540131,151.127167 
	C358.256927,147.116119 357.137329,143.616592 355.999390,139.209778 
M511.069397,123.584625 
	C516.039490,132.693100 515.354004,141.659973 510.395050,150.519867 
	C514.670288,153.813812 520.969604,154.063324 525.628601,151.010437 
	C525.373962,149.970261 524.936218,148.877090 524.861389,147.759613 
	C524.468445,141.890930 523.721680,135.994522 524.004517,130.151642 
	C524.169128,126.749969 526.977417,124.662468 530.781250,125.066841 
	C534.550903,125.467583 535.918335,128.337128 535.856689,131.413086 
	C535.744873,136.991074 534.871582,142.550064 534.567871,148.130692 
	C534.493408,149.498260 534.965210,151.492340 535.924194,152.205399 
	C538.602356,154.196762 546.285645,152.940247 549.698181,150.058044 
	C544.084412,146.891434 544.923828,141.530991 544.992126,136.394928 
	C545.018738,134.396484 545.127625,132.384689 544.953674,130.400482 
	C544.106750,120.738274 536.694763,116.303520 528.093872,120.478912 
	C525.578735,121.699898 523.771545,121.878448 521.270142,120.292160 
	C517.885742,118.145851 512.007874,119.932571 511.069397,123.584625 
M389.522400,109.688736 
	C394.333405,111.998901 399.144409,114.309067 403.957397,116.620193 
	C407.180298,110.757401 405.530029,106.581375 399.289185,105.280914 
	C396.383331,104.675415 393.375275,104.015724 390.448120,104.147591 
	C374.324066,104.873985 365.762665,114.574791 365.846832,130.416565 
	C365.954193,150.617706 385.988800,157.423599 400.945312,150.908997 
	C404.378479,149.413620 406.287262,146.482834 405.676910,141.717667 
	C402.368073,143.495728 399.984131,144.990875 397.434509,146.107834 
	C388.818970,149.882339 382.851562,147.584030 378.430817,139.356064 
	C374.651611,132.322067 375.428497,125.219315 377.643219,118.100220 
	C379.296448,112.785995 383.112732,109.951256 389.522400,109.688736 
M599.291321,137.811478 
	C595.239075,142.990585 594.923279,146.135208 598.041016,150.262573 
	C600.649414,153.715637 606.287964,154.575684 611.625793,152.166397 
	C614.212463,150.998856 616.229065,149.800659 619.183411,152.266663 
	C622.173950,154.762894 627.488464,152.707199 628.576355,149.351089 
	C626.962524,145.748596 625.712280,142.058578 625.083984,138.265564 
	C624.628296,135.514359 625.148804,132.616653 624.962891,129.802200 
	C624.650818,125.077782 623.196350,120.805580 618.005493,119.541832 
	C611.632629,117.990318 605.391846,118.762238 600.041992,122.741074 
	C598.923462,123.572960 599.053772,126.083961 598.608582,127.821175 
	C600.435059,127.969604 602.368530,128.551971 604.055847,128.136017 
	C605.538513,127.770531 606.617126,125.940979 608.107971,125.387695 
	C609.838013,124.745583 612.148987,124.088554 613.593628,124.759827 
	C614.739807,125.292397 615.771851,128.058365 615.374756,129.392151 
	C614.935120,130.868851 612.988953,132.232574 611.387451,132.960388 
	C607.662415,134.653290 603.750366,135.934525 599.291321,137.811478 
M412.698669,148.403717 
	C416.369080,153.747375 421.225952,155.039688 427.798706,152.088516 
	C430.363800,150.936783 432.304504,150.374771 435.045654,152.212936 
	C438.584869,154.586304 442.860138,152.940506 445.656708,148.621719 
	C440.803009,147.557465 440.846466,143.844681 440.973389,140.020508 
	C441.072601,137.031662 441.260193,134.008621 440.938293,131.051971 
	C440.496216,126.991638 440.347351,122.403206 435.838654,120.485001 
	C429.103638,117.619629 422.431152,118.665962 416.417633,122.524124 
	C415.199463,123.305679 415.237793,126.045723 414.696869,127.882874 
	C416.658569,127.893723 418.734039,128.304703 420.546082,127.789322 
	C422.005676,127.374161 423.005768,125.522392 424.461823,124.874641 
	C426.725189,123.867752 429.691193,122.837624 430.636200,126.276573 
	C431.370148,128.947296 432.200226,132.403976 427.443542,133.071274 
	C424.852142,133.434845 422.285645,134.268387 419.821869,135.193420 
	C412.937714,137.778107 411.607483,140.102676 412.698669,148.403717 
M314.950562,124.625038 
	C315.311188,123.331032 315.671783,122.037025 316.032410,120.743019 
	C313.171112,120.502785 310.300049,120.049553 307.455750,120.179977 
	C306.788696,120.210571 305.521790,122.349098 305.704346,123.290230 
	C307.043976,130.197006 304.329865,135.819077 301.000580,141.312500 
	C300.376129,141.402191 299.751648,141.491882 299.127197,141.581589 
	C297.235535,134.630005 295.343872,127.678436 293.306122,120.190132 
	C290.030853,120.190132 285.803192,120.190132 280.861298,120.190132 
	C281.319855,121.984444 281.437531,123.257965 281.954895,124.340446 
	C286.021362,132.848419 290.358063,141.233002 294.211884,149.834641 
	C296.576721,155.112885 293.774658,159.542480 288.180664,161.130463 
	C286.640259,161.567749 285.481689,163.350204 284.147919,164.515411 
	C285.729919,165.670883 287.201233,167.589249 288.914825,167.837936 
	C293.929626,168.565689 296.981598,165.842987 299.716400,159.438751 
	C304.601715,147.998306 309.572693,136.594421 314.950562,124.625038 
M488.822449,153.319962 
	C494.106781,152.695358 499.888733,153.135529 502.646271,146.732742 
	C499.646698,146.424118 496.718811,146.394943 494.032043,147.185394 
	C489.526489,148.510941 487.089355,145.679169 484.868866,142.914734 
	C482.516937,139.986755 484.097473,137.272461 487.877533,136.997482 
	C491.663788,136.722061 495.439728,136.294113 499.227966,136.058945 
	C503.607819,135.787064 504.403992,132.974152 503.847809,129.458145 
	C502.924377,123.621140 498.973114,118.359634 489.579193,118.911697 
	C480.878510,119.423012 474.489471,124.874687 474.012970,133.168076 
	C473.291290,145.728775 477.720459,152.031189 488.822449,153.319962 
M452.483459,152.571945 
	C457.487091,152.571945 462.490723,152.571945 466.470459,152.571945 
	C465.543060,145.077103 464.385712,138.854996 464.093781,132.592545 
	C463.706512,124.285011 464.144043,115.941193 463.877136,107.624207 
	C463.818237,105.788910 462.417328,102.537720 461.419891,102.452614 
	C457.761749,102.140495 454.013184,102.888023 450.298676,103.236633 
	C450.174774,103.780045 450.050873,104.323463 449.926941,104.866875 
	C456.167572,108.606071 455.201416,114.554382 454.943939,120.095543 
	C454.473145,130.226593 457.214386,140.783752 451.252899,150.272186 
	C451.041382,150.608856 451.635437,151.451660 452.483459,152.571945 
M651.804138,121.999184 
	C650.879028,122.073105 649.420227,122.558304 649.111267,122.157402 
	C646.004578,118.125793 641.948730,119.463455 638.135864,120.174454 
	C635.216187,120.718903 634.169250,122.244629 636.396423,125.068245 
	C640.285889,129.999420 640.182373,142.914093 636.286987,148.218948 
	C634.743042,150.321564 634.666687,152.498138 637.338257,152.686157 
	C642.435059,153.044922 647.593445,152.527878 653.923706,152.338593 
	C652.382202,149.463120 651.472351,148.276596 651.080383,146.938370 
	C649.944641,143.060684 648.264099,139.139404 648.173523,135.203537 
	C648.013611,128.259857 650.605164,126.489220 657.432007,127.665634 
	C659.861877,128.084351 661.784790,128.003250 661.977356,124.838089 
	C662.149719,122.005356 661.728882,119.610085 658.122803,120.080719 
	C656.211365,120.330185 654.376526,121.166924 651.804138,121.999184 
z"/>
<path fill="#290C4B" opacity="1.000000" stroke="none" 
	d="
M222.096222,176.062378 
	C222.872131,187.112534 218.384888,195.083420 208.115158,199.469772 
	C206.041656,200.355408 203.654739,200.921371 201.409912,200.928986 
	C173.087326,201.025269 144.764236,201.030350 116.441437,200.973022 
	C105.164650,200.950211 93.017540,188.690979 93.011993,177.484406 
	C92.998466,150.160690 93.323975,122.831276 92.831718,95.516434 
	C92.665314,86.282722 101.183754,77.474770 110.489349,78.022263 
	C114.925369,78.283249 118.881645,78.438614 118.420029,71.957619 
	C118.336655,70.787003 121.441124,68.118790 122.220581,68.411797 
	C124.055923,69.101723 126.725365,71.220291 126.663361,72.657578 
	C126.435371,77.942184 129.287445,78.240974 133.222107,78.049347 
	C137.045090,77.863159 140.886978,77.915756 144.715149,78.035728 
	C147.474411,78.122208 149.225052,77.507256 149.045288,74.223267 
	C148.872299,71.062820 150.201843,67.882271 153.518280,68.495430 
	C155.322784,68.829056 157.185272,72.243828 157.814316,74.592285 
	C158.452240,76.973938 159.094559,78.086464 161.596054,78.024017 
	C165.425522,77.928429 169.268509,77.840446 173.088806,78.053429 
	C177.323700,78.289520 180.596359,78.077629 180.362213,72.314957 
	C180.308487,70.992569 183.060028,69.556206 184.520523,68.172295 
	C185.996536,69.730148 188.745514,71.314758 188.713440,72.840912 
	C188.611099,77.709694 191.020187,78.093109 194.898880,78.074799 
	C210.491226,78.001228 221.970734,89.558815 221.995407,105.054688 
	C222.008133,113.051811 222.044128,121.048912 222.039886,129.982788 
	C222.038849,145.967178 222.067535,161.014771 222.096222,176.062378 
M149.018326,91.103119 
	C149.018326,88.512909 149.018326,85.922699 149.018326,83.332245 
	C141.348465,83.332245 134.424850,83.332245 127.194450,83.332245 
	C127.194450,86.090874 127.194450,88.548279 126.989601,91.717445 
	C124.994987,92.736290 122.847260,94.729210 121.057014,94.447823 
	C119.760742,94.244072 118.584503,91.124763 118.011246,89.118073 
	C117.504478,87.344177 117.905098,85.311066 117.905098,83.142967 
	C114.482399,83.142967 111.819702,82.972816 109.186356,83.178520 
	C103.760246,83.602364 98.877777,87.047928 98.369469,91.946030 
	C97.729309,98.114571 98.215111,104.399971 98.215111,110.997093 
	C100.548698,110.997093 102.523766,110.997093 104.498840,110.997093 
	C135.473343,110.997108 166.447845,110.997368 197.422348,110.997025 
	C211.027924,110.996880 211.027924,110.996323 210.996948,97.412354 
	C210.979843,89.906746 208.075790,84.992134 201.965271,83.737152 
	C197.881500,82.898422 193.554825,83.242386 189.699173,83.073006 
	C188.133179,87.787018 191.439713,94.562630 184.619858,94.732178 
	C177.027893,94.920944 181.127121,87.223770 179.078003,83.504402 
	C172.095581,83.504402 165.213867,83.504402 159.672928,83.504402 
	C157.961517,87.747002 156.573425,91.188110 155.185318,94.629219 
	C153.101120,93.757912 151.016937,92.886612 149.018326,91.103119 
M97.818855,120.654587 
	C97.819504,139.319321 97.767921,157.984268 97.844337,176.648697 
	C97.879028,185.122574 102.357231,189.778809 110.752914,189.805878 
	C139.916382,189.899826 169.080627,189.910675 198.243912,189.790665 
	C206.333893,189.757370 210.826477,184.913956 210.836533,176.872589 
	C210.860062,158.041153 210.844086,139.209656 210.844101,120.378181 
	C210.844101,119.097115 210.844101,117.816048 210.844101,116.160408 
	C173.724487,116.160408 137.100021,116.135468 100.476486,116.308105 
	C99.585472,116.312302 98.704811,118.514809 97.818855,120.654587 
M215.969910,148.500000 
	C215.969803,157.329773 215.981140,166.159576 215.966919,174.989334 
	C215.945053,188.570831 209.639297,194.954910 196.180420,194.964096 
	C169.524429,194.982269 142.868423,194.969894 116.212418,194.970139 
	C114.531273,194.970154 112.850128,194.970139 111.168991,194.970139 
	C111.134270,195.418625 111.099548,195.867126 111.064835,196.315613 
	C114.061661,196.848831 117.056389,197.830826 120.055656,197.844894 
	C146.037247,197.966873 172.020599,198.045532 198.001404,197.857971 
	C210.469131,197.767975 218.741501,189.559555 218.851547,177.120316 
	C219.063766,153.131805 218.970444,129.139755 218.834442,105.150146 
	C218.818497,102.338402 217.737228,99.532707 217.149826,96.724213 
	C216.756516,96.829491 216.363220,96.934769 215.969910,97.040054 
	C215.969910,113.860031 215.969910,130.680023 215.969910,148.500000 
z"/>
<path fill="#1E0837" opacity="1.000000" stroke="none" 
	d="
M586.894287,137.818344 
	C587.284546,141.673508 586.177002,145.936218 590.073364,148.889969 
	C590.299316,149.061249 589.196411,152.159164 588.307251,152.399857 
	C585.966736,153.033371 583.094299,153.625610 580.998291,152.800369 
	C577.611816,151.467041 574.767944,151.987473 571.520447,152.889145 
	C564.238892,154.910843 558.224426,151.469681 555.503723,144.132187 
	C552.881348,137.059784 554.609619,127.782372 560.542786,123.214989 
	C563.589111,120.869949 567.961731,119.775360 571.897034,119.170944 
	C577.487305,118.312332 578.940063,116.670059 576.806824,111.228546 
	C575.976318,109.110016 574.561951,107.220413 573.409668,105.219688 
	C579.102783,99.958275 584.870789,100.847168 586.619385,108.018799 
	C586.551331,118.418518 586.722839,128.118423 586.894287,137.818344 
z"/>
<path fill="#280B49" opacity="1.000000" stroke="none" 
	d="
M243.870667,119.975998 
	C241.988281,111.195343 248.804703,103.922012 258.500641,104.037903 
	C261.272461,104.071037 264.056061,104.410461 266.805023,104.810387 
	C273.696198,105.812950 275.674164,109.992989 272.060852,117.330193 
	C270.058502,115.770287 268.314819,114.099571 266.287964,112.912346 
	C263.781616,111.444267 260.960144,109.286491 258.424774,109.472343 
	C256.279541,109.629601 252.832916,112.601562 252.708069,114.507690 
	C252.554520,116.852287 254.727005,120.073540 256.836365,121.674271 
	C260.095612,124.147598 264.177643,125.522385 267.867981,127.445137 
	C274.016998,130.648926 277.119019,136.556351 275.886566,142.555054 
	C274.916534,147.276443 268.750671,152.568924 263.007477,152.846725 
	C258.573181,153.061218 254.022873,152.797028 249.654800,152.015427 
	C242.946121,150.815018 241.001450,145.657318 244.837723,138.850281 
	C246.829803,140.657288 248.604660,142.533386 250.648117,144.046768 
	C252.737305,145.594040 255.194229,148.018997 257.302582,147.840759 
	C260.387695,147.579941 263.843506,145.876038 266.027222,143.679535 
	C266.887817,142.813919 265.472992,138.193527 263.818604,136.652466 
	C260.984222,134.012192 256.839264,132.823303 253.809586,130.336655 
	C250.217346,127.388306 247.222855,123.711685 243.870667,119.975998 
z"/>
<path fill="#280B4A" opacity="1.000000" stroke="none" 
	d="
M356.008575,139.663422 
	C357.137329,143.616592 358.256927,147.116119 359.540131,151.127167 
	C357.321381,153.253769 349.851074,154.186478 346.832092,151.733139 
	C346.032532,151.083420 345.581940,149.155350 345.910034,148.108536 
	C347.678223,142.467422 348.259705,136.853699 347.020203,131.008377 
	C346.371063,127.947189 346.054382,125.172920 341.885223,125.015579 
	C337.616577,124.854500 335.372498,127.169907 335.238007,130.804062 
	C335.043488,136.059814 335.291809,141.429230 336.199493,146.601288 
	C337.115570,151.820984 336.818573,152.815247 331.431976,152.969238 
	C329.274933,153.030899 327.049805,153.157684 324.965210,152.725967 
	C321.934875,152.098373 320.258850,150.260925 323.057343,147.574417 
	C325.661133,145.074738 326.069458,142.535751 325.328766,139.113922 
	C324.196533,133.883270 326.314880,128.058258 322.370667,123.251686 
	C322.049164,122.859917 323.053650,120.515175 323.499146,120.497246 
	C326.763367,120.365837 330.041901,120.606522 333.316559,120.709610 
	C335.112701,120.766151 337.219879,121.416817 338.655975,120.714333 
	C347.233246,116.518646 357.084412,119.283264 356.027496,131.717773 
	C355.816681,134.197983 355.998566,136.711578 356.008575,139.663422 
z"/>
<path fill="#280A4A" opacity="1.000000" stroke="none" 
	d="
M510.857697,123.281387 
	C512.007874,119.932571 517.885742,118.145851 521.270142,120.292160 
	C523.771545,121.878448 525.578735,121.699898 528.093872,120.478912 
	C536.694763,116.303520 544.106750,120.738274 544.953674,130.400482 
	C545.127625,132.384689 545.018738,134.396484 544.992126,136.394928 
	C544.923828,141.530991 544.084412,146.891434 549.698181,150.058044 
	C546.285645,152.940247 538.602356,154.196762 535.924194,152.205399 
	C534.965210,151.492340 534.493408,149.498260 534.567871,148.130692 
	C534.871582,142.550064 535.744873,136.991074 535.856689,131.413086 
	C535.918335,128.337128 534.550903,125.467583 530.781250,125.066841 
	C526.977417,124.662468 524.169128,126.749969 524.004517,130.151642 
	C523.721680,135.994522 524.468445,141.890930 524.861389,147.759613 
	C524.936218,148.877090 525.373962,149.970261 525.628601,151.010437 
	C520.969604,154.063324 514.670288,153.813812 510.394958,150.519867 
	C515.354004,141.659973 516.039490,132.693100 510.857697,123.281387 
z"/>
<path fill="#280B49" opacity="1.000000" stroke="none" 
	d="
M389.152161,109.757568 
	C383.112732,109.951256 379.296448,112.785995 377.643219,118.100220 
	C375.428497,125.219315 374.651611,132.322067 378.430817,139.356064 
	C382.851562,147.584030 388.818970,149.882339 397.434509,146.107834 
	C399.984131,144.990875 402.368073,143.495728 405.676910,141.717667 
	C406.287262,146.482834 404.378479,149.413620 400.945312,150.908997 
	C385.988800,157.423599 365.954193,150.617706 365.846832,130.416565 
	C365.762665,114.574791 374.324066,104.873985 390.448120,104.147591 
	C393.375275,104.015724 396.383331,104.675415 399.289185,105.280914 
	C405.530029,106.581375 407.180298,110.757401 403.957397,116.620193 
	C399.144409,114.309067 394.333405,111.998901 389.152161,109.757568 
z"/>
<path fill="#290C4A" opacity="1.000000" stroke="none" 
	d="
M599.602661,137.597031 
	C603.750366,135.934525 607.662415,134.653290 611.387451,132.960388 
	C612.988953,132.232574 614.935120,130.868851 615.374756,129.392151 
	C615.771851,128.058365 614.739807,125.292397 613.593628,124.759827 
	C612.148987,124.088554 609.838013,124.745583 608.107971,125.387695 
	C606.617126,125.940979 605.538513,127.770531 604.055847,128.136017 
	C602.368530,128.551971 600.435059,127.969604 598.608582,127.821175 
	C599.053772,126.083961 598.923462,123.572960 600.041992,122.741074 
	C605.391846,118.762238 611.632629,117.990318 618.005493,119.541832 
	C623.196350,120.805580 624.650818,125.077782 624.962891,129.802200 
	C625.148804,132.616653 624.628296,135.514359 625.083984,138.265564 
	C625.712280,142.058578 626.962524,145.748596 628.576355,149.351089 
	C627.488464,152.707199 622.173950,154.762894 619.183411,152.266663 
	C616.229065,149.800659 614.212463,150.998856 611.625793,152.166397 
	C606.287964,154.575684 600.649414,153.715637 598.041016,150.262573 
	C594.923279,146.135208 595.239075,142.990585 599.602661,137.597031 
M613.999329,146.328842 
	C616.728760,143.804001 617.083008,140.392059 614.839844,138.082489 
	C613.839294,137.052231 609.801025,137.909470 607.887573,139.104660 
	C605.626831,140.516815 603.887268,143.146576 605.955383,146.258194 
	C608.202393,149.638962 610.793579,148.758286 613.999329,146.328842 
z"/>
<path fill="#290B4A" opacity="1.000000" stroke="none" 
	d="
M412.498505,148.057922 
	C411.607483,140.102676 412.937714,137.778107 419.821869,135.193420 
	C422.285645,134.268387 424.852142,133.434845 427.443542,133.071274 
	C432.200226,132.403976 431.370148,128.947296 430.636200,126.276573 
	C429.691193,122.837624 426.725189,123.867752 424.461823,124.874641 
	C423.005768,125.522392 422.005676,127.374161 420.546082,127.789322 
	C418.734039,128.304703 416.658569,127.893723 414.696869,127.882874 
	C415.237793,126.045723 415.199463,123.305679 416.417633,122.524124 
	C422.431152,118.665962 429.103638,117.619629 435.838654,120.485001 
	C440.347351,122.403206 440.496216,126.991638 440.938293,131.051971 
	C441.260193,134.008621 441.072601,137.031662 440.973389,140.020508 
	C440.846466,143.844681 440.803009,147.557465 445.656708,148.621719 
	C442.860138,152.940506 438.584869,154.586304 435.045654,152.212936 
	C432.304504,150.374771 430.363800,150.936783 427.798706,152.088516 
	C421.225952,155.039688 416.369080,153.747375 412.498505,148.057922 
M428.635773,137.099457 
	C426.498657,138.221161 424.039978,138.986771 422.304993,140.553711 
	C420.080536,142.562714 420.766327,146.921265 423.264313,147.670578 
	C426.245270,148.564774 429.348175,148.402008 430.882751,145.006195 
	C432.170258,142.157120 433.662750,139.042419 428.635773,137.099457 
z"/>
<path fill="#280B49" opacity="1.000000" stroke="none" 
	d="
M314.729218,124.900146 
	C309.572693,136.594421 304.601715,147.998306 299.716400,159.438751 
	C296.981598,165.842987 293.929626,168.565689 288.914825,167.837936 
	C287.201233,167.589249 285.729919,165.670883 284.147919,164.515411 
	C285.481689,163.350204 286.640259,161.567749 288.180664,161.130463 
	C293.774658,159.542480 296.576721,155.112885 294.211884,149.834641 
	C290.358063,141.233002 286.021362,132.848419 281.954895,124.340446 
	C281.437531,123.257965 281.319855,121.984444 280.861298,120.190132 
	C285.803192,120.190132 290.030853,120.190132 293.306122,120.190132 
	C295.343872,127.678436 297.235535,134.630005 299.127197,141.581589 
	C299.751648,141.491882 300.376129,141.402191 301.000580,141.312500 
	C304.329865,135.819077 307.043976,130.197006 305.704346,123.290230 
	C305.521790,122.349098 306.788696,120.210571 307.455750,120.179977 
	C310.300049,120.049553 313.171112,120.502785 316.032410,120.743019 
	C315.671783,122.037025 315.311188,123.331032 314.729218,124.900146 
z"/>
<path fill="#290C4A" opacity="1.000000" stroke="none" 
	d="
M488.438782,153.234497 
	C477.720459,152.031189 473.291290,145.728775 474.012970,133.168076 
	C474.489471,124.874687 480.878510,119.423012 489.579193,118.911697 
	C498.973114,118.359634 502.924377,123.621140 503.847809,129.458145 
	C504.403992,132.974152 503.607819,135.787064 499.227966,136.058945 
	C495.439728,136.294113 491.663788,136.722061 487.877533,136.997482 
	C484.097473,137.272461 482.516937,139.986755 484.868866,142.914734 
	C487.089355,145.679169 489.526489,148.510941 494.032043,147.185394 
	C496.718811,146.394943 499.646698,146.424118 502.646271,146.732742 
	C499.888733,153.135529 494.106781,152.695358 488.438782,153.234497 
M487.724457,133.000977 
	C490.709198,132.769287 494.885651,134.035614 495.575226,130.036102 
	C495.891266,128.203217 493.290680,124.868019 491.209808,123.840736 
	C487.503326,122.010902 485.088013,124.806953 483.649719,128.095337 
	C482.276672,131.234360 483.527069,132.849380 487.724457,133.000977 
z"/>
<path fill="#270A49" opacity="1.000000" stroke="none" 
	d="
M452.168762,152.315247 
	C451.635437,151.451660 451.041382,150.608856 451.252899,150.272186 
	C457.214386,140.783752 454.473145,130.226593 454.943939,120.095543 
	C455.201416,114.554382 456.167572,108.606071 449.926941,104.866875 
	C450.050873,104.323463 450.174774,103.780045 450.298676,103.236633 
	C454.013184,102.888023 457.761749,102.140495 461.419891,102.452614 
	C462.417328,102.537720 463.818237,105.788910 463.877136,107.624207 
	C464.144043,115.941193 463.706512,124.285011 464.093781,132.592545 
	C464.385712,138.854996 465.543060,145.077103 466.470459,152.571945 
	C462.490723,152.571945 457.487091,152.571945 452.168762,152.315247 
z"/>
<path fill="#280B4A" opacity="1.000000" stroke="none" 
	d="
M652.155640,121.868866 
	C654.376526,121.166924 656.211365,120.330185 658.122803,120.080719 
	C661.728882,119.610085 662.149719,122.005356 661.977356,124.838089 
	C661.784790,128.003250 659.861877,128.084351 657.432007,127.665634 
	C650.605164,126.489220 648.013611,128.259857 648.173523,135.203537 
	C648.264099,139.139404 649.944641,143.060684 651.080383,146.938370 
	C651.472351,148.276596 652.382202,149.463120 653.923706,152.338593 
	C647.593445,152.527878 642.435059,153.044922 637.338257,152.686157 
	C634.666687,152.498138 634.743042,150.321564 636.286987,148.218948 
	C640.182373,142.914093 640.285889,129.999420 636.396423,125.068245 
	C634.169250,122.244629 635.216187,120.718903 638.135864,120.174454 
	C641.948730,119.463455 646.004578,118.125793 649.111267,122.157402 
	C649.420227,122.558304 650.879028,122.073105 652.155640,121.868866 
z"/>
<path fill="#211D25" opacity="1.000000" stroke="none" 
	d="
M222.325302,175.713699 
	C222.067535,161.014771 222.038849,145.967178 222.036987,130.450226 
	C222.285660,130.421371 222.701935,130.862183 222.701218,131.302292 
	C222.676865,145.989914 222.612701,160.677460 222.325302,175.713699 
z"/>
<path fill="#4D366B" opacity="1.000000" stroke="none" 
	d="
M586.896606,137.365601 
	C586.722839,128.118423 586.551331,118.418518 586.637695,108.401596 
	C586.896667,117.694023 586.897766,127.303444 586.896606,137.365601 
z"/>
<path fill="#E6EEF6" opacity="1.000000" stroke="none" 
	d="
M97.819092,120.173294 
	C98.704811,118.514809 99.585472,116.312302 100.476486,116.308105 
	C137.100021,116.135468 173.724487,116.160408 210.844101,116.160408 
	C210.844101,117.816048 210.844101,119.097115 210.844101,120.378181 
	C210.844086,139.209656 210.860062,158.041153 210.836533,176.872589 
	C210.826477,184.913956 206.333893,189.757370 198.243912,189.790665 
	C169.080627,189.910675 139.916382,189.899826 110.752914,189.805878 
	C102.357231,189.778809 97.879028,185.122574 97.844337,176.648697 
	C97.767921,157.984268 97.819504,139.319321 97.819092,120.173294 
M146.539413,158.853104 
	C150.761765,163.069916 154.984116,167.286713 158.964828,171.262207 
	C163.887070,166.515305 168.688492,162.139038 173.182953,157.467453 
	C176.573959,153.942825 176.539581,149.639130 173.591492,146.748962 
	C170.583344,143.799911 165.939774,143.914764 162.434235,147.276886 
	C161.415390,148.254059 160.972351,149.831619 160.214020,151.228561 
	C158.312866,149.411865 157.714920,148.850342 157.127716,148.277786 
	C152.974960,144.228531 148.419418,143.510986 145.230759,146.407028 
	C141.960190,149.377472 142.249191,153.629715 146.539413,158.853104 
M177.705688,137.383377 
	C177.987366,139.337509 177.646881,141.748276 178.677643,143.152603 
	C180.965866,146.270187 183.941513,148.883209 186.695984,151.763718 
	C189.664215,148.809326 192.395309,146.184433 195.015808,143.453400 
	C197.142990,141.236496 197.551697,138.725311 195.223633,136.447647 
	C192.909134,134.183258 190.666489,135.176392 188.792557,137.240067 
	C188.245941,137.841995 188.059372,138.770844 187.724213,139.513458 
	C184.194504,136.892227 182.000046,133.043289 177.705688,137.383377 
M131.500031,133.963470 
	C144.277008,133.963470 157.054001,133.963470 169.830978,133.963470 
	C169.822662,133.464188 169.814331,132.964890 169.806015,132.465607 
	C149.254318,132.465607 128.702621,132.465607 108.150917,132.465607 
	C108.135246,132.964890 108.119568,133.464188 108.103897,133.963470 
	C115.569283,133.963470 123.034676,133.963470 131.500031,133.963470 
M127.498619,170.642059 
	C121.000679,170.642059 114.502739,170.642059 108.004799,170.642059 
	C108.019371,171.176636 108.033951,171.711227 108.048531,172.245804 
	C120.284454,172.245804 132.520370,172.245804 144.756287,172.245804 
	C144.784439,171.711243 144.812592,171.176697 144.840744,170.642136 
	C139.392700,170.642136 133.944656,170.642136 127.498619,170.642059 
M131.941040,153.280838 
	C132.974289,153.070435 134.007538,152.860016 135.040771,152.649597 
	C134.959137,152.355103 134.877502,152.060593 134.795853,151.766098 
	C125.892723,151.766098 116.989586,151.766098 108.086456,151.766098 
	C108.084000,152.271194 108.081551,152.776306 108.079102,153.281403 
	C115.732788,153.281403 123.386475,153.281403 131.941040,153.280838 
z"/>
<path fill="#3478F7" opacity="1.000000" stroke="none" 
	d="
M148.932739,92.015312 
	C151.016937,92.886612 153.101120,93.757912 155.185333,94.629219 
	C156.573425,91.188110 157.961517,87.747002 159.672928,83.504402 
	C165.213867,83.504402 172.095581,83.504402 179.078003,83.504402 
	C181.127121,87.223770 177.027893,94.920944 184.619858,94.732178 
	C191.439713,94.562630 188.133179,87.787018 189.699173,83.073006 
	C193.554825,83.242386 197.881500,82.898422 201.965271,83.737152 
	C208.075790,84.992134 210.979843,89.906746 210.996948,97.412354 
	C211.027924,110.996323 211.027924,110.996880 197.422348,110.997025 
	C166.447845,110.997368 135.473343,110.997108 104.498840,110.997093 
	C102.523766,110.997093 100.548698,110.997093 98.215111,110.997093 
	C98.215111,104.399971 97.729309,98.114571 98.369469,91.946030 
	C98.877777,87.047928 103.760246,83.602364 109.186356,83.178520 
	C111.819702,82.972816 114.482399,83.142967 117.905098,83.142967 
	C117.905098,85.311066 117.504478,87.344177 118.011246,89.118073 
	C118.584503,91.124763 119.760742,94.244072 121.057014,94.447823 
	C122.847260,94.729210 124.994987,92.736290 127.296021,91.028435 
	C127.155975,84.689079 130.119781,83.127899 135.170319,83.959267 
	C136.140762,84.119019 137.160004,83.982185 138.156738,83.982185 
	C146.506332,83.982216 146.505386,83.982491 148.647491,91.609634 
	C148.689651,91.759727 148.835342,91.880737 148.932739,92.015312 
z"/>
<path fill="#82B2ED" opacity="1.000000" stroke="none" 
	d="
M215.969910,148.000000 
	C215.969910,130.680023 215.969910,113.860031 215.969910,97.040054 
	C216.363220,96.934769 216.756516,96.829491 217.149826,96.724213 
	C217.737228,99.532707 218.818497,102.338402 218.834442,105.150146 
	C218.970444,129.139755 219.063766,153.131805 218.851547,177.120316 
	C218.741501,189.559555 210.469131,197.767975 198.001404,197.857971 
	C172.020599,198.045532 146.037247,197.966873 120.055656,197.844894 
	C117.056389,197.830826 114.061661,196.848831 111.064835,196.315613 
	C111.099548,195.867126 111.134270,195.418625 111.168991,194.970139 
	C112.850128,194.970139 114.531273,194.970154 116.212418,194.970139 
	C142.868423,194.969894 169.524429,194.982269 196.180420,194.964096 
	C209.639297,194.954910 215.945053,188.570831 215.966919,174.989334 
	C215.981140,166.159576 215.969803,157.329773 215.969910,148.000000 
z"/>
<path fill="#5E7BD0" opacity="1.000000" stroke="none" 
	d="
M148.975525,91.559219 
	C148.835342,91.880737 148.689651,91.759727 148.647491,91.609634 
	C146.505386,83.982491 146.506332,83.982216 138.156738,83.982185 
	C137.160004,83.982185 136.140762,84.119019 135.170319,83.959267 
	C130.119781,83.127899 127.155975,84.689079 127.398445,90.672546 
	C127.194450,88.548279 127.194450,86.090874 127.194450,83.332245 
	C134.424850,83.332245 141.348465,83.332245 149.018326,83.332245 
	C149.018326,85.922699 149.018326,88.512909 148.975525,91.559219 
z"/>
<path fill="#000000" opacity="1.000000" stroke="none" 
	d="
M613.734619,146.602173 
	C610.793579,148.758286 608.202393,149.638962 605.955383,146.258194 
	C603.887268,143.146576 605.626831,140.516815 607.887573,139.104660 
	C609.801025,137.909470 613.839294,137.052231 614.839844,138.082489 
	C617.083008,140.392059 616.728760,143.804001 613.734619,146.602173 
z"/>
<path fill="#000000" opacity="1.000000" stroke="none" 
	d="
M429.026672,137.110260 
	C433.662750,139.042419 432.170258,142.157120 430.882751,145.006195 
	C429.348175,148.402008 426.245270,148.564774 423.264313,147.670578 
	C420.766327,146.921265 420.080536,142.562714 422.304993,140.553711 
	C424.039978,138.986771 426.498657,138.221161 429.026672,137.110260 
z"/>
<path fill="#000000" opacity="1.000000" stroke="none" 
	d="
M487.296753,132.994843 
	C483.527069,132.849380 482.276672,131.234360 483.649719,128.095337 
	C485.088013,124.806953 487.503326,122.010902 491.209808,123.840736 
	C493.290680,124.868019 495.891266,128.203217 495.575226,130.036102 
	C494.885651,134.035614 490.709198,132.769287 487.296753,132.994843 
z"/>
<path fill="#2A0D4C" opacity="1.000000" stroke="none" 
	d="
M146.289795,158.585022 
	C142.249191,153.629715 141.960190,149.377472 145.230759,146.407028 
	C148.419418,143.510986 152.974960,144.228531 157.127716,148.277786 
	C157.714920,148.850342 158.312866,149.411865 160.214020,151.228561 
	C160.972351,149.831619 161.415390,148.254059 162.434235,147.276886 
	C165.939774,143.914764 170.583344,143.799911 173.591492,146.748962 
	C176.539581,149.639130 176.573959,153.942825 173.182953,157.467453 
	C168.688492,162.139038 163.887070,166.515305 158.964828,171.262207 
	C154.984116,167.286713 150.761765,163.069916 146.289795,158.585022 
z"/>
<path fill="#2E114F" opacity="1.000000" stroke="none" 
	d="
M177.916473,137.065948 
	C182.000046,133.043289 184.194504,136.892227 187.724213,139.513458 
	C188.059372,138.770844 188.245941,137.841995 188.792557,137.240067 
	C190.666489,135.176392 192.909134,134.183258 195.223633,136.447647 
	C197.551697,138.725311 197.142990,141.236496 195.015808,143.453400 
	C192.395309,146.184433 189.664215,148.809326 186.695984,151.763718 
	C183.941513,148.883209 180.965866,146.270187 178.677643,143.152603 
	C177.646881,141.748276 177.987366,139.337509 177.916473,137.065948 
z"/>
<path fill="#311552" opacity="1.000000" stroke="none" 
	d="
M131.000046,133.963470 
	C123.034676,133.963470 115.569283,133.963470 108.103897,133.963470 
	C108.119568,133.464188 108.135246,132.964890 108.150917,132.465607 
	C128.702621,132.465607 149.254318,132.465607 169.806015,132.465607 
	C169.814331,132.964890 169.822662,133.464188 169.830978,133.963470 
	C157.054001,133.963470 144.277008,133.963470 131.000046,133.963470 
z"/>
<path fill="#4D366B" opacity="1.000000" stroke="none" 
	d="
M127.997620,170.642090 
	C133.944656,170.642136 139.392700,170.642136 144.840744,170.642136 
	C144.812592,171.176697 144.784439,171.711243 144.756287,172.245804 
	C132.520370,172.245804 120.284454,172.245804 108.048531,172.245804 
	C108.033951,171.711227 108.019371,171.176636 108.004799,170.642059 
	C114.502739,170.642059 121.000679,170.642059 127.997620,170.642090 
z"/>
<path fill="#472F65" opacity="1.000000" stroke="none" 
	d="
M131.490601,153.281128 
	C123.386475,153.281403 115.732788,153.281403 108.079102,153.281403 
	C108.081551,152.776306 108.084000,152.271194 108.086456,151.766098 
	C116.989586,151.766098 125.892723,151.766098 134.795853,151.766098 
	C134.877502,152.060593 134.959137,152.355103 135.040771,152.649597 
	C134.007538,152.860016 132.974289,153.070435 131.490601,153.281128 
z"/>
</svg>